<mxfile host="app.diagrams.net" agent="Mozilla/5.0 (X11; Linux x86_64) AppleWebKit/537.36 (KHTML, like Gecko) Chrome/130.0.0.0 Safari/537.36" version="26.0.1">
  <diagram name="Page-1" id="xB2KGPDMb64g68ENrzL8">
    <mxGraphModel dx="1277" dy="895" grid="1" gridSize="10" guides="1" tooltips="1" connect="1" arrows="1" fold="1" page="1" pageScale="1" pageWidth="850" pageHeight="1100" math="0" shadow="0">
      <root>
        <mxCell id="0" />
        <mxCell id="1" parent="0" />
        <mxCell id="FsNgGGdD4rKOkY8G807n-1" value=" " style="rounded=1;whiteSpace=wrap;html=1;fillColor=#EDEDED;" vertex="1" parent="1">
          <mxGeometry x="50" y="250" width="750" height="130" as="geometry" />
        </mxCell>
        <mxCell id="FsNgGGdD4rKOkY8G807n-2" value="" style="rounded=1;whiteSpace=wrap;html=1;fillColor=#EDEDED;" vertex="1" parent="1">
          <mxGeometry x="50" y="390" width="750" height="130" as="geometry" />
        </mxCell>
        <mxCell id="FsNgGGdD4rKOkY8G807n-3" value="&lt;b&gt;&lt;font style=&quot;font-size: 14px;&quot;&gt;Fixed&lt;/font&gt;&lt;/b&gt;" style="text;html=1;align=center;verticalAlign=middle;whiteSpace=wrap;rounded=0;" vertex="1" parent="1">
          <mxGeometry x="60" y="300" width="60" height="30" as="geometry" />
        </mxCell>
        <mxCell id="FsNgGGdD4rKOkY8G807n-4" value="Flexible" style="text;html=1;align=center;verticalAlign=middle;whiteSpace=wrap;rounded=0;fontStyle=1;fontSize=14;" vertex="1" parent="1">
          <mxGeometry x="60" y="440" width="60" height="30" as="geometry" />
        </mxCell>
        <mxCell id="FsNgGGdD4rKOkY8G807n-5" value="" style="triangle;whiteSpace=wrap;html=1;rotation=-90;" vertex="1" parent="1">
          <mxGeometry x="240" y="270" width="170" height="220" as="geometry" />
        </mxCell>
        <mxCell id="FsNgGGdD4rKOkY8G807n-6" value="" style="triangle;whiteSpace=wrap;html=1;rotation=90;" vertex="1" parent="1">
          <mxGeometry x="530" y="270" width="170" height="220" as="geometry" />
        </mxCell>
        <mxCell id="FsNgGGdD4rKOkY8G807n-7" value="Cost" style="text;html=1;align=center;verticalAlign=middle;whiteSpace=wrap;rounded=0;fontStyle=1" vertex="1" parent="1">
          <mxGeometry x="180" y="470" width="60" height="30" as="geometry" />
        </mxCell>
        <mxCell id="FsNgGGdD4rKOkY8G807n-8" value="Schedule" style="text;html=1;align=center;verticalAlign=middle;whiteSpace=wrap;rounded=0;fontStyle=1" vertex="1" parent="1">
          <mxGeometry x="400" y="470" width="60" height="30" as="geometry" />
        </mxCell>
        <mxCell id="FsNgGGdD4rKOkY8G807n-9" value="Scope&lt;br&gt;(well defined)" style="text;html=1;align=center;verticalAlign=middle;whiteSpace=wrap;rounded=0;fontStyle=1" vertex="1" parent="1">
          <mxGeometry x="277.5" y="260" width="95" height="30" as="geometry" />
        </mxCell>
        <mxCell id="FsNgGGdD4rKOkY8G807n-10" value="Scope&lt;br&gt;(definition evolves)" style="text;html=1;align=center;verticalAlign=middle;whiteSpace=wrap;rounded=0;fontStyle=1" vertex="1" parent="1">
          <mxGeometry x="558.75" y="470" width="112.5" height="30" as="geometry" />
        </mxCell>
        <mxCell id="FsNgGGdD4rKOkY8G807n-11" value="Cost &lt;br&gt;(for sprint)" style="text;html=1;align=center;verticalAlign=middle;whiteSpace=wrap;rounded=0;fontStyle=1" vertex="1" parent="1">
          <mxGeometry x="470" y="260" width="70" height="30" as="geometry" />
        </mxCell>
        <mxCell id="FsNgGGdD4rKOkY8G807n-12" value="Schedule&lt;br&gt;(for sprint)" style="text;html=1;align=center;verticalAlign=middle;whiteSpace=wrap;rounded=0;fontStyle=1" vertex="1" parent="1">
          <mxGeometry x="690" y="260" width="70" height="30" as="geometry" />
        </mxCell>
        <mxCell id="FsNgGGdD4rKOkY8G807n-13" value="Traditional Plan-driven" style="text;html=1;align=center;verticalAlign=middle;whiteSpace=wrap;rounded=0;fontStyle=1" vertex="1" parent="1">
          <mxGeometry x="290" y="400" width="70" height="30" as="geometry" />
        </mxCell>
        <mxCell id="FsNgGGdD4rKOkY8G807n-14" value="Agile &lt;br&gt;(evolving requirements &amp;amp; planning on the fly)" style="text;html=1;align=center;verticalAlign=middle;whiteSpace=wrap;rounded=0;fontStyle=1" vertex="1" parent="1">
          <mxGeometry x="558.75" y="320" width="120" height="30" as="geometry" />
        </mxCell>
      </root>
    </mxGraphModel>
  </diagram>
</mxfile>
